<?xml version="1.0" encoding="UTF-8"?>
<svg id="Layer_1" data-name="Layer 1" xmlns="http://www.w3.org/2000/svg" xmlns:xlink="http://www.w3.org/1999/xlink" version="1.1" viewBox="0 0 1920 349.6">
  <defs>
    <style>
      .cls-1 {
        clip-path: url(#clippath);
      }

      .cls-2 {
        fill: none;
      }

      .cls-2, .cls-3 {
        stroke-width: 0px;
      }

      .cls-3 {
        fill: #32a2a2;
      }
    </style>
    <clipPath id="clippath">
      <rect class="cls-2" x="0" width="1919.9" height="349.6"/>
    </clipPath>
  </defs>
  <g class="cls-1">
    <g>
      <path class="cls-3" d="M1416.6,273L1347.1,8.6h-112.3l-69.2,266.1-51.4-266.1h-99.3l79.5,335.3h129.7l67.3-255.8,65,255.8h129.7L1567.8,8.6h-100l-51.2,264.3Z"/>
      <path class="cls-3" d="M492.4,156.5L421.7,9.1h-94.7l122.7,217.1-.3,117h84.8l.3-117L658.3,9.1h-94.5l-71.3,147.5Z"/>
      <path class="cls-3" d="M88.8,172.9c.2-81.5,33.1-109.9,78.8-109.7,48.2.1,64.2,35,67.2,84.3l-146.1,25.5h0ZM164.6,0C67.5-.3.4,60.8,0,173.3c-.4,109.3,63.1,174,168.6,174.3,70.1.2,123.6-28,146.9-76.6l-80.9-22.3c-11,22.4-31.4,35.8-64,35.7-47.6-.1-75.1-29.3-80.7-86.2l234.1.7C324.5,79.5,284.9.4,164.6,0Z"/>
      <path class="cls-3" d="M748.8,175c.2-81.5,33.1-109.9,78.8-109.7,48.2.1,64.2,35,67.2,84.3l-146.1,25.5h0ZM824.6,2.1c-97.1-.3-164.2,60.8-164.6,173.3-.4,109.3,63.1,174,168.6,174.3,70.1.2,123.6-28,146.9-76.6l-80.9-22.3c-11,22.4-31.4,35.8-64,35.7-47.6-.2-75.1-29.3-80.7-86.2l234.1.7c.4-119.4-39.2-198.5-159.5-198.9Z"/>
      <path class="cls-3" d="M1834,231.9s-17,43.8-74.8,43.6c-56.7-.2-71.2-62.1-71.1-102.2.1-42.5,19.6-101.9,77.6-101.7,46.7.1,68.5,44.6,68.5,44.6l-.3,115.6h0ZM1834.4,85.4s-31.4-81.5-98.6-81.8c-76.3-.2-140.1,63.9-140.3,169.5-.3,105.7,46.1,170,139.2,170.3,76.3.2,99.2-88.9,99.2-88.9l-.3,88.5,85.5.2.9-334.8h-85.4l-.2,76.8h0Z"/>
    </g>
  </g>
</svg>