<?xml version="1.0" encoding="UTF-8"?>
<svg id="Layer_2" data-name="Layer 2" xmlns="http://www.w3.org/2000/svg" viewBox="0 0 1920 512.46">
  <defs>
    <style>
      .cls-1 {
        fill: #000;
        stroke-width: 0px;
      }
    </style>
  </defs>
  <g id="Layer_1-2" data-name="Layer 1">
    <g>
      <path class="cls-1" d="M343.08,507.86L509.87,4.58h170.72l-70.42,503.29h-95.22l11.91-81.2h-60.62l-25.37,81.2h-97.79ZM492.26,346.3h45.76l38.07-255.93h-4.58l-79.26,255.93Z"/>
      <path class="cls-1" d="M661.97,507.86L780.13,4.58h153.27l-29.71,306.83L1017.76,4.58h154.71l-118.16,503.29h-92.09l85.15-362.6-142.9,362.6h-90.35l23.95-362.6-85.15,362.6h-90.94Z"/>
      <path class="cls-1" d="M1405.93,507.86L1524.09,4.58h100.09l-42.23,179.87h47.47l42.23-179.87h100.09l-118.16,503.29h-100.09l53.58-228.2h-47.47l-53.58,228.2h-100.09Z"/>
      <path class="cls-1" d="M1234.27,512.44c-45.95,0-76.37-11.43-91.31-34.31-14.94-22.88-16.53-59.28-4.81-109.24l11.56-49.19h99.5l-14.77,62.92c-2.74,11.64-3.11,20.73-1.13,27.31,1.99,6.58,7.36,9.86,16.13,9.86s16.11-2.67,20.9-8c4.79-5.33,8.61-14.1,11.47-26.31,3.64-15.44,5.14-28.36,4.53-38.74-.61-10.39-3.57-20.31-8.88-29.73-5.33-9.44-13.16-20.44-23.57-33.04l-35.1-42.9c-26.27-31.84-34.58-68.24-24.97-109.24,10.07-42.9,27.71-75.58,52.91-98.08,25.2-22.48,56.69-33.75,94.43-33.75,46.14,0,76,12.29,89.56,36.88,13.56,24.59,14.48,61.96,2.72,112.1h-102.37l8.13-34.6c1.61-6.87.92-12.2-2.09-16.01-3.01-3.8-7.86-5.73-14.52-5.73-8,0-14.4,2.24-19.16,6.73-4.76,4.47-7.98,10.24-9.63,17.3-1.65,7.06-1.55,14.69.36,22.88,1.88,8.19,7.21,17.64,15.94,28.31l44.95,55.77c9.03,11.05,16.97,22.73,23.8,35.02,6.83,12.29,11.3,26.6,13.37,42.9,2.09,16.3.38,36.17-5.14,59.61-11.1,47.29-28.52,84.31-52.26,111.1-23.74,26.79-57.23,40.18-100.51,40.18l-.02-.02Z"/>
      <path class="cls-1" d="M1704.61,507.86L1822.77,4.58h97.23l-118.16,503.29h-97.23Z"/>
      <path class="cls-1" d="M309.67,4.03l-66.47,283.09L218.8,4.12h-.33l.02-.08h-100.19L0,507.86h100.19l53.64-228.43,12.43-53.01,4.05,44.82,21.06,236.49h.02l-.02.13h100.19l53.64-228.43,22.38-95.33L409.86,4.03h-100.19Z"/>
    </g>
  </g>
</svg>