<?xml version="1.0" encoding="UTF-8"?>
<svg id="Layer_1" data-name="Layer 1" xmlns="http://www.w3.org/2000/svg" version="1.1" viewBox="0 0 1920 282.4">
  <defs>
    <style>
      .cls-1 {
        fill: #000;
        stroke-width: 0px;
      }
    </style>
  </defs>
  <path class="cls-1" d="M33.4,15.4l29,190h.8l1.6-15.9,13.5-85.2,15.5-88.9h31.8l-49.8,252.4h-26.9L0,15.4h33.4ZM339.7,141.4c0,45.7-.8,129.7-65.7,129.7s-65.7-84-65.7-129.7.8-129.7,65.7-129.7,65.7,84.4,65.7,129.7ZM243.9,141.4c0,53.4,3.7,98.3,30.2,98.3s30.2-44.5,30.2-98.3-3.7-98.3-30.2-98.3-30.2,44.9-30.2,98.3ZM562,134.5v4.1c0,48.1,6.9,132.5-60.4,132.5s-66.9-57.5-66.9-128.9,5.7-130.1,64-130.1,53,17.9,61.6,51.4l-31.8,13.1c-3.3-16.7-8.2-33-29-33s-29.4,37.5-29.4,98.3c0,87.7,14.7,97.9,29.4,97.9s29-2,29-62.4v-13.9h-28.1v-29h61.6ZM724.3,15.4l54.2,252.4h-33.8l-9.4-49.3h-50.2l-9.4,49.3h-32.6l55.1-252.4h26.1ZM723.5,156.1l-12.6-91.8h-.8l-20,128.1h40.4l-6.9-36.3ZM965.3,49.6c-6.5-3.3-13.9-6.5-21.6-6.5-46.9,0-47.3,68.1-47.3,99.9s2.9,96.2,48.5,96.2,13.9-1.6,20-4.9v29.4c-8.6,5.3-17.1,6.9-26.9,6.9-68.1,0-77.5-72.6-77.5-125.6,0-50.6,6.5-133.8,75-133.8s19.6,1.6,29,7.3v31h.8ZM1091.7,15.4v223.5h56.3v29h-89.7V15.4h33.4ZM1360.9,141.4c0,45.7-.8,129.7-65.7,129.7s-65.7-84-65.7-129.7.8-129.7,65.7-129.7,65.7,84.4,65.7,129.7ZM1265,141.4c0,53.4,3.7,98.3,30.2,98.3s30.2-44.5,30.2-98.3-3.7-98.3-30.2-98.3c-26.5.4-30.2,44.9-30.2,98.3ZM1539.9,54.1c-8.6-6.5-17.1-10.6-28.5-10.6-18.4,0-29.8,15.1-29.8,32.6s2.9,18.8,9.4,27.3l25.3,27.7c22.8,23.2,35.9,40,35.9,73.8s-22,66.1-59.1,66.1-26.5-3.7-36.7-12.2v-33.8c10.2,7.3,20,13.1,33,13.1,20.8,0,29.4-16.3,29.4-35.1,0-50.2-70.6-60.4-70.6-126.4s18.8-64.4,56.7-64.4,24.9,2,35.5,8.6l-.4,33.4h0ZM1737.7,15.4v29h-56.7v79.5h50.6v29h-50.6v85.6h56.7v29h-90.1V15h90.1v.4ZM1920,15.4v29h-37.9v223.5h-33.4V44.3h-39.6V15.4h110.9Z"/>
</svg>