<?xml version="1.0" encoding="UTF-8"?>
<svg id="svg5721" xmlns="http://www.w3.org/2000/svg" xmlns:svg="http://www.w3.org/2000/svg" version="1.1" viewBox="0 0 1024 286">
  <defs>
    <style>
      .cls-1 {
        fill: #000;
        stroke-width: 0px;
      }
    </style>
  </defs>
  <path id="path3409" class="cls-1" d="M364,223.1c-1.5,0-2.4-.5-2.4-1.5s.4-1.2,1.3-1.9c12-9.7,91.2-73.6,103.2-83.5,21-16.9,25.4-25.2,25.4-37.2s-3.5-14.7-8.8-19.1c-6.4-5.4-15.9-8.3-31.2-8.3h-134.9v2.1c0,7,1.5,14.6,5,19.6,5.4,7.8,15.7,12.3,29.6,12.3h88.5c1.6,0,2.4.5,2.4,1.3s-.4,1.2-1.4,1.9c-12.5,10.2-85.6,69.1-103.8,83.7-21.1,16.9-25.2,25.3-25.2,37.3s3.5,14.6,8.8,19c6.4,5.4,15.9,8.4,31.3,8.4h141.1v-1.3c0-10-2.8-18.6-8.8-24.1-6.9-6.4-15.8-8.7-32.5-8.7h-87.6,0ZM977.1,208.8c-.4,0-.8-.3-1.2-.7-28-36.4-79.3-103.5-90.4-118.2-11.8-15.3-21-20.4-33.2-20.4s-16.3,3.3-21.3,8.6c-5.6,6-8.4,15.2-8.4,25.7v120.1c0,12,3.1,20.2,9.1,26.2,6.3,6.4,15.4,9.9,26.3,9.9s1.4,0,2.2,0V122.3c0-1,.4-1.5,1.1-1.5s.8.2,1.2.8c16.4,21.3,78.6,102.7,90.5,118,11.8,15.3,20.9,20.5,33.1,20.5s16.3-3.3,21.3-8.6c5.6-6,8.4-15.1,8.4-25.7v-120.1c0-12-3.2-20.2-9.2-26.3-6.4-6.3-15.3-9.9-26.4-9.9s-1.3,0-2.2,0v137.7c0,1-.5,1.5-1.1,1.5M672.8,184.9v39.1c0,12,3.2,20.2,9.2,26.2,6.3,6.4,15.8,9.9,27,9.9s1.9,0,2.8,0v-83.3c0-35.8-9.8-59.9-27.2-78.7-17.9-19.3-44.7-30.4-75.7-30.4-59.5,0-100.7,43.6-100.7,100.3s38.2,93,87.7,93,61.1-22.7,61.1-49.3-3.1-20.6-9.9-30.7c-5.5,28.6-21.3,44.4-46.8,44.4s-51.2-20.6-51.2-58.3,24-62.3,59.9-62.3,32.5,6.3,43.4,17c12.9,12.7,20.4,32.3,20.4,63.2M789.5,31.3c0-12.7-10.3-23-23-23s-23,10.3-23,23,10.3,23.1,23,23.1,23-10.3,23-23.1M786,260V105c0-12.1-3.2-20.3-9.1-26.3-6.4-6.4-15.7-9.9-27-9.9s-2,0-2.8.1v155c0,12,3.2,20.2,9.1,26.2,6.3,6.4,15.7,9.9,26.9,9.9s1.9,0,2.9,0"/>
  <path id="path3413" class="cls-1" d="M223.3,108.7c0-22.5-17.3-39.5-41.9-37.6-52.3,4-59.1,63.5-25,67.3,35.6,4,48.4-33.7,49.1-35.8,0,0,0,0,0,0,0,2.6,2,54.4-50.9,54.4s-41.6-22.4-41.6-41.9c0-28.8,28-57.5,67.6-59,22.2-.9,36.8,4.4,48.2,15.8,23.3,23.3,16.6,67-2.3,88.6-30,34.3-72,43-111.3,25.4-39.2-17.6-53.3-68.5-29.5-111.1,8.7-15.7,40.5-50.6,95.1-50.6s104.4,49.1,98.1,106.8c-4.9,44.2-31.7,76.2-44.2,89.7-54.7,59.4-135,71.3-185.7,40.4-27.9-17-44.1-47.5-40.5-82.1,3.1,25,15.5,46.5,36.2,60.7,41.4,28.2,110.6,32.1,160.6-22.9-50.3,37.5-109,37-149.1,10.8-36.8-24-46.9-71.8-28.9-119.2-9,42.2,5.5,81.3,37.4,101.7,49.8,31.8,122.3,13.5,167.9-37.7,15.6-17.4,24.5-41,24.2-62.4-.5-35.8-25.4-67.9-75.8-67.9s-87.2,40-87.2,73.2,25.3,58,58.4,58,71-20.6,71-64.7"/>
</svg>