<svg xmlns="http://www.w3.org/2000/svg" viewBox="0 0 24 24" fill="white"><path d="M11.975 1l-5.302 4.49H4.013v3.985L.587 12.002l3.426 2.527v3.985h2.632L11.975 23l5.33-4.486h2.632v-3.985l3.451-2.527-3.451-2.527V5.49h-2.66L11.975 1zm0 2.399l3.924 3.323v3.44L11.975 7.62 8.02 10.163V6.722l3.955-3.323zM6.07 7.487h.893l-1.14.963v3.97H4.77l-1.14-.838 2.44-4.095zm11.845 0l2.44 4.095-1.14.838h-1.054v-3.97l-1.14-.963h.894zM7.823 10.8l4.152 2.527-4.152 2.526V10.8zm8.33 0v5.053l-4.152-2.526 4.152-2.527zm-10.2 4.212H7.01l1.14.963v3.44L4.225 16.09l1.728-1.079zm12.089 0l1.728 1.079-3.924 3.323v-3.44l1.14-.962h1.056zM11.975 14.71l3.956 2.527-3.956 3.35-3.924-3.35 3.924-2.527z"/></svg>